<mxfile host="Electron" modified="2024-04-08T14:58:48.054Z" agent="Mozilla/5.0 (Windows NT 10.0; Win64; x64) AppleWebKit/537.36 (KHTML, like Gecko) draw.io/24.1.0 Chrome/120.0.6099.109 Electron/28.1.0 Safari/537.36" etag="7st0tC1yAnn7tbQoN_4w" version="24.1.0" type="device">
  <diagram name="Page-1" id="fupJLmAl7Hud7uF2GurD">
    <mxGraphModel dx="1034" dy="574" grid="1" gridSize="10" guides="1" tooltips="1" connect="1" arrows="1" fold="1" page="1" pageScale="1" pageWidth="850" pageHeight="1100" math="0" shadow="0">
      <root>
        <mxCell id="0" />
        <mxCell id="1" parent="0" />
        <mxCell id="W2UvnLE42ZpJzcV71eIw-13" value="" style="rounded=0;whiteSpace=wrap;html=1;" vertex="1" parent="1">
          <mxGeometry x="450" y="360" width="280" height="220" as="geometry" />
        </mxCell>
        <mxCell id="W2UvnLE42ZpJzcV71eIw-12" value="" style="rounded=0;whiteSpace=wrap;html=1;" vertex="1" parent="1">
          <mxGeometry x="40" y="360" width="280" height="220" as="geometry" />
        </mxCell>
        <mxCell id="W2UvnLE42ZpJzcV71eIw-1" value="WAN" style="image;aspect=fixed;perimeter=ellipsePerimeter;html=1;align=center;shadow=0;dashed=0;spacingTop=3;image=img/lib/active_directory/internet_cloud.svg;" vertex="1" parent="1">
          <mxGeometry x="340" y="90" width="50" height="31.5" as="geometry" />
        </mxCell>
        <mxCell id="W2UvnLE42ZpJzcV71eIw-2" value="vswitch&lt;br&gt;VNET5" style="image;html=1;image=img/lib/clip_art/networking/Switch_128x128.png" vertex="1" parent="1">
          <mxGeometry x="140" y="230" width="80" height="80" as="geometry" />
        </mxCell>
        <mxCell id="W2UvnLE42ZpJzcV71eIw-4" value="vswitch&lt;br&gt;VNET6" style="image;html=1;image=img/lib/clip_art/networking/Switch_128x128.png" vertex="1" parent="1">
          <mxGeometry x="550" y="235" width="80" height="80" as="geometry" />
        </mxCell>
        <mxCell id="W2UvnLE42ZpJzcV71eIw-5" value="PXE-Diskless-Client" style="image;aspect=fixed;perimeter=ellipsePerimeter;html=1;align=center;shadow=0;dashed=0;spacingTop=3;image=img/lib/active_directory/laptop_client.svg;" vertex="1" parent="1">
          <mxGeometry x="90" y="430" width="45" height="50" as="geometry" />
        </mxCell>
        <mxCell id="W2UvnLE42ZpJzcV71eIw-6" value="DHCP-Relay" style="image;aspect=fixed;perimeter=ellipsePerimeter;html=1;align=center;shadow=0;dashed=0;spacingTop=3;image=img/lib/active_directory/laptop_client.svg;" vertex="1" parent="1">
          <mxGeometry x="585" y="420" width="45" height="50" as="geometry" />
        </mxCell>
        <mxCell id="W2UvnLE42ZpJzcV71eIw-8" value="PXE-Server" style="image;aspect=fixed;perimeter=ellipsePerimeter;html=1;align=center;shadow=0;dashed=0;spacingTop=3;image=img/lib/active_directory/generic_server.svg;" vertex="1" parent="1">
          <mxGeometry x="240" y="420" width="28.000000000000004" height="50" as="geometry" />
        </mxCell>
        <mxCell id="W2UvnLE42ZpJzcV71eIw-9" value="DHCP-Server" style="image;aspect=fixed;perimeter=ellipsePerimeter;html=1;align=center;shadow=0;dashed=0;spacingTop=3;image=img/lib/active_directory/generic_server.svg;" vertex="1" parent="1">
          <mxGeometry x="362" y="245" width="28.000000000000004" height="50" as="geometry" />
        </mxCell>
        <mxCell id="W2UvnLE42ZpJzcV71eIw-10" value="Windows-Client" style="image;aspect=fixed;perimeter=ellipsePerimeter;html=1;align=center;shadow=0;dashed=0;spacingTop=3;image=img/lib/active_directory/laptop_client.svg;" vertex="1" parent="1">
          <mxGeometry x="157.5" y="370" width="45" height="50" as="geometry" />
        </mxCell>
      </root>
    </mxGraphModel>
  </diagram>
</mxfile>
